Coordinates
version=1
nRows=13
nColumns=40
inDegrees=yes

Units are S.I. units (second, meters, Newtons, ...)
If the header above contains a line with 'inDegrees', this indicates whether rotational values are in degrees (yes) or radians (no).

endheader
time	pelvis_tilt	pelvis_list	pelvis_rotation	pelvis_tx	pelvis_ty	pelvis_tz	hip_flexion_r	hip_adduction_r	hip_rotation_r	knee_angle_r	knee_angle_r_beta	ankle_angle_r	subtalar_angle_r	mtp_angle_r	hip_flexion_l	hip_adduction_l	hip_rotation_l	knee_angle_l	knee_angle_l_beta	ankle_angle_l	subtalar_angle_l	mtp_angle_l	lumbar_extension	lumbar_bending	lumbar_rotation	arm_flex_r	arm_add_r	arm_rot_r	elbow_flex_r	pro_sup_r	wrist_flex_r	wrist_dev_r	arm_flex_l	arm_add_l	arm_rot_l	elbow_flex_l	pro_sup_l	wrist_flex_l	wrist_dev_l
      0.61000000	      4.38784924	      5.53790710	      4.48367018	      0.36728093	      0.82043439	     -0.25325977	     23.60942139	     -4.48217628	     -8.56112846	      3.83382049	      0.06691279	     -0.25391421	      0.00000000	      0.00000000	    -18.62173789	     10.41057517	      1.57937941	     10.76709169	      0.18792120	     14.00080062	      0.00000000	      0.00000000	    -19.96519463	     -4.12215934	     -8.59008379	     -1.66058275	     -0.54581939	     -4.25691877	     35.57450168	     88.70756762	      4.31537785	     20.74529689	      0.27564453	     -4.64924988	     -8.52471502	     50.80410186	     88.75519611	     -5.03949025	     13.27045841
      0.62000000	      4.47600933	      5.51818200	      4.58086578	      0.37758289	      0.81989617	     -0.25287984	     23.45195814	     -4.25852800	     -8.18274845	      4.23776231	      0.07396291	     -0.26251492	      0.00000000	      0.00000000	    -19.13146454	     10.15726893	      1.72530517	     11.50809875	      0.20085421	     13.76136657	      0.00000000	      0.00000000	    -20.14296603	     -4.07067335	     -8.64201838	     -1.63887917	     -0.48956147	     -4.24033204	     35.57265570	     88.69026130	      4.34050252	     20.65298569	      0.32444693	     -4.41732116	     -8.71879726	     50.56345753	     88.73455046	     -5.07325476	     13.40121247
      0.63000000	      4.55171312	      5.47121001	      4.66929098	      0.38818043	      0.81946480	     -0.25246868	     23.27978896	     -4.01427343	     -7.76438996	      4.85569846	      0.08474793	     -0.36339074	      0.00000000	      0.00000000	    -19.62858106	      9.87414457	      1.90817177	     12.25118112	      0.21382345	     13.38627869	      0.00000000	      0.00000000	    -20.27897199	     -3.99629082	     -8.70400673	     -1.61541849	     -0.44009228	     -4.23022838	     35.56459140	     88.67373086	      4.36023847	     20.57353369	      0.29581273	     -4.19203210	     -8.87744473	     50.31825270	     88.71469551	     -5.09670030	     13.50631902
      0.64000000	      4.64145584	      5.41610913	      4.76560137	      0.39900405	      0.81919713	     -0.25207258	     23.06670548	     -3.77868944	     -7.33488027	      5.65426765	      0.09868559	     -0.56585042	      0.00000000	      0.00000000	    -20.09859984	      9.57506194	      2.08006771	     13.07060791	      0.22812514	     12.85483905	      0.00000000	      0.00000000	    -20.40978876	     -3.90227146	     -8.75873229	     -1.59914270	     -0.40643177	     -4.22441543	     35.53493476	     88.65692906	      4.38013436	     20.50081130	      0.23555536	     -3.96587580	     -9.03667829	     50.06087840	     88.69869947	     -5.11324596	     13.59704255
      0.65000000	      4.72328224	      5.34732643	      4.85849582	      0.41006637	      0.81906218	     -0.25161912	     22.82717854	     -3.54282195	     -6.90227487	      6.56153058	      0.11452031	     -0.89658839	      0.00000000	      0.00000000	    -20.52653352	      9.25387326	      2.24502460	     13.94613078	      0.24340590	     12.16020304	      0.00000000	      0.00000000	    -20.51665488	     -3.79500545	     -8.80732302	     -1.57895218	     -0.37567007	     -4.22640981	     35.49525222	     88.63927550	      4.40184004	     20.43780170	      0.12068470	     -3.74140576	     -9.17395697	     49.78900988	     88.69001487	     -5.11735175	     13.67421409
      0.66000000	      4.80134894	      5.29321461	      4.96809616	      0.42133055	      0.81912245	     -0.25120856	     22.55963414	     -3.34508968	     -6.52867118	      7.55572559	      0.13187229	     -1.39882727	      0.00000000	      0.00000000	    -20.87138452	      8.93456195	      2.31240185	     14.95221983	      0.26096547	     11.21899773	      0.00000000	      0.00000000	    -20.61200859	     -3.70401118	     -8.83021433	     -1.57433278	     -0.36562661	     -4.23413110	     35.41993844	     88.62056562	      4.43495396	     20.37756026	     -0.01036447	     -3.51057365	     -9.31881238	     49.51809870	     88.69130721	     -5.09816027	     13.74127891
      0.67000000	      4.83040291	      5.24491771	      5.04273431	      0.43284192	      0.81928923	     -0.25066623	     22.29737836	     -3.15087410	     -6.18763549	      8.52269806	      0.14874914	     -2.12582986	      0.00000000	      0.00000000	    -21.09696653	      8.62172239	      2.29435799	     16.05922031	      0.28028627	     10.01980552	      0.00000000	      0.00000000	    -20.63114250	     -3.63712415	     -8.84421601	     -1.57230608	     -0.35425850	     -4.25058864	     35.32376785	     88.59815545	      4.50403677	     20.31027736	     -0.20171769	     -3.30962231	     -9.45080744	     49.22131015	     88.70564525	     -5.00727354	     13.80078594
      0.68000000	      4.88922706	      5.04880581	      5.12687531	      0.44467846	      0.81965627	     -0.25021053	     21.94273037	     -2.81908669	     -5.65842384	      9.46520373	      0.16519897	     -2.79390448	      0.00000000	      0.00000000	    -21.35207545	      8.17294573	      2.48764597	     17.11009411	      0.29862748	      8.82563852	      0.00000000	      0.00000000	    -20.62916191	     -3.37772485	     -8.86981318	     -1.55795194	     -0.38072055	     -4.28915021	     35.23309522	     88.57261206	      4.53780829	     20.29680506	     -0.46906768	     -3.11931169	     -9.48711407	     48.88292461	     88.71388165	     -4.96366387	     13.85309032
      0.69000000	      4.96262739	      4.86061522	      5.20424120	      0.45661554	      0.82032220	     -0.24966155	     21.54315591	     -2.50835325	     -5.30335046	     10.37527508	      0.18108271	     -3.64418261	      0.00000000	      0.00000000	    -21.45720182	      7.70176012	      2.45339720	     18.41670507	      0.32143214	      7.22503263	      0.00000000	      0.00000000	    -20.64463458	     -3.14038610	     -8.83262121	     -1.54232062	     -0.41273854	     -4.31937482	     35.11199544	     88.54642751	      4.58571223	     20.30881810	     -0.72313829	     -2.93159966	     -9.52833329	     48.51268988	     88.73281789	     -4.90660176	     13.89336680
      0.70000000	      5.01841860	      4.64735347	      5.28665677	      0.46867586	      0.82120086	     -0.24920802	     21.10853271	     -2.19914078	     -5.04197887	     11.17450793	      0.19503196	     -4.59433681	      0.00000000	      0.00000000	    -21.41797286	      7.19029218	      2.23446872	     19.89513616	      0.34723563	      5.30906904	      0.00000000	      0.00000000	    -20.63483356	     -2.88075973	     -8.75657073	     -1.53578221	     -0.48272144	     -4.34820386	     34.96616660	     88.51893747	      4.65037627	     20.34717063	     -0.98577828	     -2.73118075	     -9.53503911	     48.12169097	     88.76069972	     -4.82228972	     13.91964891
      0.71000000	      5.01749563	      4.41339765	      5.32106260	      0.48100845	      0.82224560	     -0.24856290	     20.64138393	     -1.86320719	     -4.99988657	     11.75785894	      0.20521335	     -5.77505419	      0.00000000	      0.00000000	    -21.17420335	      6.62344663	      1.65903749	     21.57506131	      0.37655586	      2.98972615	      0.00000000	      0.00000000	    -20.51633130	     -2.64218760	     -8.60023757	     -1.56677059	     -0.56352243	     -4.35644701	     34.80320476	     88.48863603	      4.78857013	     20.44141992	     -1.26527917	     -2.57292388	     -9.48368777	     47.62793711	     88.79432994	     -4.63099653	     13.89630155
      0.72000000	      5.14881832	      4.03277274	      5.35587998	      0.49332134	      0.82360319	     -0.24797517	     20.09048184	     -1.37588924	     -4.62916795	     12.51335196	      0.21839919	     -6.39736841	      0.00000000	      0.00000000	    -20.98720838	      5.92827560	      1.48030047	     23.31443272	      0.40691361	      0.78447594	      0.00000000	      0.00000000	    -20.55207587	     -2.20704971	     -8.43560553	     -1.53634461	     -0.67739379	     -4.36825689	     34.65502417	     88.46789550	      4.85585989	     20.50605309	     -1.57912540	     -2.39099931	     -9.44357336	     47.20061214	     88.82345976	     -4.54155090	     13.91088767
      0.73000000	      5.17210510	      3.67362323	      5.38397495	      0.50589680	      0.82502732	     -0.24718688	     19.52352988	     -0.93054415	     -4.79463746	     12.98496092	      0.22663032	     -7.24944859	      0.00000000	      0.00000000	    -20.44518964	      5.12197653	      0.47506354	     25.43123079	      0.44385871	     -2.17643649	      0.00000000	      0.00000000	    -20.39924378	     -1.86141996	     -8.20321881	     -1.59904864	     -0.78179840	     -4.29769527	     34.52941028	     88.45247375	      4.96877821	     20.63475756	     -1.89422980	     -2.26592510	     -9.33862216	     46.67547207	     88.85874071	     -4.37580861	     13.88177993
